#!OML:ASF I:\Actors\actors\Patient Classification 2\Patient 1\Session 1\actor1.ASF
:FULLY-SPECIFIED
:DEGREES
63
root -1.124 18.1527 5.80818 0.324156 -4.94407 -3.33774
lowerback 2.91432 0.62461 0.460795
upperback -2.01101 0.907271 1.53559
thorax -3.72213 0.460661 1.26783
lowerneck -10.3557 0.0194444 -1.90091
upperneck 18.6124 0.209248 0.818364
head 7.41739 0.0398285 0.602961
rclavicle 1.65093e-014 3.37002e-015
rhumerus -47.7343 0.170749 -87.8533
rradius 39.7139
rwrist 17.3348
rhand -10.4316 -25.0594
rfingers 7.12502
rthumb 15.568 -54.4528
lclavicle 1.65093e-014 3.37002e-015
lhumerus -43.5843 3.34534 92.0605
lradius 37.4196
lwrist -10.2877
lhand -4.42541 -24.9224
lfingers 7.12502
lthumb 21.3454 3.922
rfemur 8.57595 -0.66726 19.2323
rtibia -9.54166e-015
rfoot -15.7859 -7.64
rtoes 6.13856
lfemur 17.1799 -6.32561 -14.1719
ltibia -16.3254
lfoot -5.91896 21.1774
ltoes -10.4538
64
root -1.12475 18.1526 5.80857 0.332114 -4.93743 -3.33848
lowerback 2.89659 0.628163 0.467324
upperback -2.00633 0.912069 1.5383
thorax -3.70728 0.462904 1.26686
lowerneck -10.3353 0.0249141 -1.97422
upperneck 18.6009 0.211558 0.911523
head 7.40966 0.0443978 0.645711
rclavicle 1.43576e-014 -9.49379e-015
rhumerus -47.7296 0.151821 -87.8362
rradius 39.7049
rwrist 17.3877
rhand -10.7923 -25.2721
rfingers 7.12502
rthumb 15.2206 -54.6922
lclavicle 1.43576e-014 -9.49379e-015
lhumerus -43.581 3.33288 92.0708
lradius 37.4268
lwrist -10.3157
lhand -4.4874 -24.9097
lfingers 7.12502
lthumb 21.2859 3.94139
rfemur 8.56989 -0.674096 19.2337
rtibia 3.18055e-015
rfoot -15.7869 -7.65089
rtoes 6.08572
lfemur 17.1691 -6.32787 -14.1664
ltibia -16.3218
lfoot -5.94823 21.17
ltoes -10.3178
65
root -1.12519 18.1535 5.80905 0.329282 -4.9352 -3.32559
lowerback 2.90202 0.639905 0.472232
upperback -1.99962 0.927847 1.53547
thorax -3.70359 0.47058 1.26019
lowerneck -10.3446 0.0367974 -1.9783
upperneck 18.5747 0.236408 0.874143
head 7.40248 0.0527963 0.636438
rclavicle -2.61654e-014 1.15047e-014
rhumerus -47.7052 0.139454 -87.8298
rradius 39.6962
rwrist 17.3401
rhand -10.9788 -25.3607
rfingers 7.12502
rthumb 15.041 -54.7944
lclavicle -2.61654e-014 1.15047e-014
lhumerus -43.5713 3.31151 92.0854
lradius 37.4235
lwrist -10.3167
lhand -4.51153 -24.9742
lfingers 7.12502
lthumb 21.2627 3.87956
rfemur 8.5753 -0.675579 19.2163
rtibia 1.74931e-014
rfoot -15.7841 -7.64645
rtoes 6.18798
lfemur 17.1741 -6.32393 -14.1814
ltibia -16.3273
lfoot -5.9108 21.1596
ltoes -10.5739
66
root -1.12545 18.1534 5.80918 0.31636 -4.94273 -3.32407
lowerback 2.93237 0.654256 0.497177
upperback -1.9972 0.948122 1.52289
thorax -3.718 0.479855 1.23168
lowerneck -10.2993 0.09455 -1.86951
upperneck 18.5286 0.309749 0.800691
head 7.37851 0.089024 0.600934
rclavicle 1.00892e-014 -4.26455e-015
rhumerus -47.7131 0.138112 -87.8594
rradius 39.7204
rwrist 17.2596
rhand -11.0377 -25.2156
rfingers 7.12502
rthumb 14.9841 -54.6534
lclavicle 1.00892e-014 -4.26455e-015
lhumerus -43.5706 3.27244 92.0847
lradius 37.4231
lwrist -10.2892
lhand -4.45161 -24.9823
lfingers 7.12502
lthumb 21.3202 3.86489
rfemur 8.58908 -0.667929 19.2149
rtibia -7.95139e-015
rfoot -15.8176 -7.60882
rtoes 6.41484
lfemur 17.189 -6.32302 -14.1834
ltibia -16.3282
lfoot -5.89723 21.1615
ltoes -10.6507
67
root -1.12559 18.1536 5.80908 0.328393 -4.95327 -3.33305
lowerback 2.93201 0.668143 0.544903
upperback -1.99881 0.968056 1.49943
thorax -3.71861 0.488226 1.1795
lowerneck -10.1611 0.189243 -1.6497
upperneck 18.4284 0.41507 0.712198
head 7.3202 0.147084 0.544546
rclavicle -5.73913e-015 -1.66482e-015
rhumerus -47.7234 0.101515 -87.8928
rradius 39.7489
rwrist 17.2405
rhand -11.0433 -25.0959
rfingers 7.12502
rthumb 14.9787 -54.5342
lclavicle -5.73913e-015 -1.66482e-015
lhumerus -43.5824 3.23083 92.0679
lradius 37.4385
lwrist -10.2822
lhand -4.3741 -24.952
lfingers 7.12502
lthumb 21.3947 3.88679
rfemur 8.57316 -0.658209 19.228
rtibia 2.54444e-014
rfoot -15.8422 -7.5934
rtoes 6.48713
lfemur 17.1823 -6.29948 -14.1677
ltibia -16.3375
lfoot -5.90238 21.1579
ltoes -10.5506
68
root -1.12518 18.1542 5.8089 0.343167 -4.94273 -3.34267
lowerback 2.93495 0.667379 0.604167
upperback -2.00427 0.969062 1.47593
thorax -3.72451 0.486877 1.12192
lowerneck -10.0427 0.227294 -1.47848
upperneck 18.3537 0.44598 0.653807
head 7.27484 0.168674 0.499288
rclavicle -1.60227e-014 4.44781e-015
rhumerus -47.7138 0.0649574 -87.9225
rradius 39.733
rwrist 17.2345
rhand -11.0532 -25.1089
rfingers 7.12502
rthumb 14.9692 -54.5479
lclavicle -1.60227e-014 4.44781e-015
lhumerus -43.5782 3.22237 92.0374
lradius 37.4235
lwrist -10.2904
lhand -4.33863 -24.9184
lfingers 7.12502
lthumb 21.4287 3.91654
rfemur 8.55935 -0.668426 19.2351
rtibia 6.36111e-015
rfoot -15.8355 -7.5904
rtoes 6.38646
lfemur 17.176 -6.29094 -14.1568
ltibia -16.3555
lfoot -5.89064 21.1485
ltoes -10.5644
69
root -1.12511 18.1533 5.8087 0.325089 -4.9156 -3.34264
lowerback 2.97574 0.655003 0.624492
upperback -2.00734 0.954002 1.47118
thorax -3.75011 0.478773 1.1061
lowerneck -9.97109 0.23354 -1.41575
upperneck 18.3045 0.450657 0.609955
head 7.24628 0.171431 0.474648
rclavicle -5.11055e-015 -2.94698e-014
rhumerus -47.7056 0.0698531 -87.9407
rradius 39.702
rwrist 17.1971
rhand -11.0691 -25.0883
rfingers 7.12502
rthumb 14.9539 -54.5284
lclavicle -5.11055e-015 -2.94698e-014
lhumerus -43.5598 3.26061 92.0182
lradius 37.3799
lwrist -10.3104
lhand -4.33619 -24.8672
lfingers 7.12502
lthumb 21.4311 3.96739
rfemur 8.58695 -0.694879 19.2328
rtibia -1.90833e-014
rfoot -15.8218 -7.59075
rtoes 6.26156
lfemur 17.2019 -6.31511 -14.1631
ltibia -16.3688
lfoot -5.8759 21.1415
ltoes -10.6137
70
root -1.12595 18.1522 5.80844 0.314898 -4.90279 -3.33105
lowerback 2.99725 0.642592 0.590984
upperback -2.0067 0.93639 1.47632
thorax -3.76197 0.470941 1.13106
lowerneck -9.94206 0.250182 -1.38601
upperneck 18.2749 0.475989 0.567413
head 7.23144 0.181906 0.458001
rclavicle -1.41906e-015 -5.34234e-015
rhumerus -47.7088 0.100997 -87.9629
rradius 39.6933
rwrist 17.149
rhand -11.0011 -25.0348
rfingers 7.12502
rthumb 15.0194 -54.4701
lclavicle -1.41906e-015 -5.34234e-015
lhumerus -43.5523 3.32111 92.0013
lradius 37.3481
lwrist -10.3261
lhand -4.32139 -24.8399
lfingers 7.12502
lthumb 21.4453 3.99317
rfemur 8.60138 -0.70847 19.2261
rtibia -6.36111e-015
rfoot -15.8399 -7.60291
rtoes 6.24296
lfemur 17.211 -6.32913 -14.1734
ltibia -16.3731
lfoot -5.88278 21.1347
ltoes -10.5473
71
root -1.12681 18.1526 5.80754 0.326945 -4.89889 -3.33362
lowerback 3.00127 0.637299 0.576444
upperback -2.00436 0.928679 1.47648
thorax -3.76193 0.46748 1.13982
lowerneck -9.95188 0.253624 -1.38815
upperneck 18.2709 0.477534 0.58666
head 7.23178 0.184237 0.464759
rclavicle 7.50994e-015 2.47238e-014
rhumerus -47.7282 0.128945 -88.0242
rradius 39.7193
rwrist 17.0732
rhand -10.8957 -25.1311
rfingers 7.12502
rthumb 15.121 -54.5587
lclavicle 7.50994e-015 2.47238e-014
lhumerus -43.5467 3.26126 92.0174
lradius 37.3227
lwrist -10.3146
lhand -4.40183 -24.9037
lfingers 7.12502
lthumb 21.368 3.93814
rfemur 8.58707 -0.713621 19.2352
rtibia 3.18055e-015
rfoot -15.8329 -7.60123
rtoes 6.37271
lfemur 17.1784 -6.31382 -14.1564
ltibia -16.3584
lfoot -5.91005 21.1085
ltoes -10.4276
72
root -1.12721 18.1524 5.80718 0.331357 -4.89297 -3.34413
lowerback 2.9852 0.640073 0.605646
upperback -1.9761 0.932742 1.46887
thorax -3.72304 0.468615 1.11562
lowerneck -9.99216 0.244852 -1.44431
upperneck 18.2653 0.460801 0.666181
head 7.23692 0.179557 0.498503
rclavicle 1.75101e-015 9.62863e-015
rhumerus -47.7541 0.330662 -88.2321
rradius 39.7586
rwrist 16.6967
rhand -10.0986 -26.0386
rfingers 7.12502
rthumb 15.8887 -55.4067
lclavicle 1.75101e-015 9.62863e-015
lhumerus -43.4946 2.94164 92.1451
lradius 37.2988
lwrist -10.2982
lhand -4.62942 -25.0101
lfingers 7.12502
lthumb 21.1494 3.85636
rfemur 8.58052 -0.720228 19.2498
rtibia 1.43125e-014
rfoot -15.7741 -7.60255
rtoes 6.37642
lfemur 17.1511 -6.33186 -14.1403
ltibia -16.327
lfoot -5.93584 21.1141
ltoes -10.335
73
root -1.12761 18.1511 5.80633 0.323173 -4.87057 -3.28486
lowerback 2.9297 0.639855 0.5912
upperback -1.90061 0.92845 1.4327
thorax -3.61303 0.466306 1.08758
lowerneck -10.0854 0.234806 -1.53037
upperneck 18.2503 0.440969 0.785394
head 7.24825 0.175031 0.549956
rclavicle 1.08889e-014 1.31322e-014
rhumerus -47.7558 1.06343 -88.7763
rradius 39.8399
rwrist 15.5965
rhand -8.49717 -27.8649
rfingers 7.12502
rthumb 17.4304 -57.1034
lclavicle 1.08889e-014 1.31322e-014
lhumerus -43.3788 2.21747 92.456
lradius 37.3411
lwrist -10.1923
lhand -4.85555 -25.063
lfingers 7.12502
lthumb 20.9322 3.82754
rfemur 8.57877 -0.742024 19.1855
rtibia 1.59028e-014
rfoot -15.7519 -7.61497
rtoes 6.24955
lfemur 17.1322 -6.36901 -14.2074
ltibia -16.3034
lfoot -5.927 21.1266
ltoes -10.3065
74
root -1.12888 18.1508 5.80346 0.302659 -4.84781 -3.20328
lowerback 2.87259 0.64362 0.576127
upperback -1.82736 0.928282 1.35698
thorax -3.50385 0.465571 1.01894
lowerneck -10.0681 0.235423 -1.51079
upperneck 18.1649 0.428629 0.835231
head 7.21739 0.175257 0.561364
rclavicle -1.01784e-014 1.25234e-014
rhumerus -47.8514 2.34801 -89.7021
rradius 40.1655
rwrist 14.3951
rhand -7.15915 -29.5894
rfingers 7.12502
rthumb 18.7178 -58.7089
lclavicle -1.01784e-014 1.25234e-014
lhumerus -43.3151 0.855517 93.0016
lradius 37.5046
lwrist -9.6963
lhand -4.39745 -24.8541
lfingers 7.12502
lthumb 21.3723 3.98725
rfemur 8.58174 -0.764218 19.0993
rtibia 7.95139e-015
rfoot -15.7666 -7.60936
rtoes 6.35921
lfemur 17.119 -6.34169 -14.2862
ltibia -16.2885
lfoot -5.88932 21.0675
ltoes -10.4607
